<?xml version="1.0" encoding="UTF-8" standalone="no"?>
<svg
   xmlns:dc="http://purl.org/dc/elements/1.1/"
   xmlns:cc="http://creativecommons.org/ns#"
   xmlns:rdf="http://www.w3.org/1999/02/22-rdf-syntax-ns#"
   xmlns:svg="http://www.w3.org/2000/svg"
   xmlns="http://www.w3.org/2000/svg"
   xmlns:sodipodi="http://sodipodi.sourceforge.net/DTD/sodipodi-0.dtd"
   xmlns:inkscape="http://www.inkscape.org/namespaces/inkscape"
   inkscape:version="1.0 (4035a4fb49, 2020-05-01)"
   sodipodi:docname="ahbicht-logo.svg"
   id="svg8"
   version="1.1"
   viewBox="0 0 41.9342 53.773903"
   height="53.773903mm"
   width="41.9342mm"
   inkscape:export-filename="C:\workspaces_test\ahbicht\media\ahbicht-logo.png"
   inkscape:export-xdpi="300"
   inkscape:export-ydpi="300">
  <defs
     id="defs2">
    <clipPath
       id="clipPath1112"
       clipPathUnits="userSpaceOnUse">
      <path
         id="path1114"
         d="m 346.3069,-354.81722 5.29166,36.66368 1.13393,23.8125 -8.31546,12.4732 c 0,0 2.26785,8.69347 4.15772,8.69347 1.88989,0 26.45833,-1.13393 26.45833,-1.13393 l 19.65478,-34.39583 1.13393,-31.75 -15.875,-15.875 z"
         style="fill:none;stroke:#000000;stroke-width:0.264583px;stroke-linecap:butt;stroke-linejoin:miter;stroke-opacity:1" />
    </clipPath>
  </defs>
  <sodipodi:namedview
     fit-margin-bottom="0"
     fit-margin-right="0"
     fit-margin-left="0"
     fit-margin-top="0"
     inkscape:window-maximized="1"
     inkscape:window-y="1072"
     inkscape:window-x="-8"
     inkscape:window-height="1017"
     inkscape:window-width="1920"
     inkscape:snap-page="true"
     inkscape:snap-text-baseline="true"
     inkscape:snap-center="true"
     inkscape:snap-object-midpoints="true"
     inkscape:snap-midpoints="true"
     inkscape:snap-smooth-nodes="true"
     inkscape:snap-intersection-paths="true"
     inkscape:object-paths="true"
     inkscape:snap-bbox-midpoints="true"
     inkscape:snap-bbox-edge-midpoints="true"
     inkscape:bbox-nodes="true"
     inkscape:bbox-paths="true"
     inkscape:snap-bbox="true"
     showgrid="false"
     inkscape:document-rotation="0"
     inkscape:current-layer="layer1"
     inkscape:document-units="mm"
     inkscape:cy="139.05771"
     inkscape:cx="168.39546"
     inkscape:zoom="1.4"
     inkscape:pageshadow="2"
     inkscape:pageopacity="0.0"
     borderopacity="1.0"
     bordercolor="#666666"
     pagecolor="#ffffff"
     id="base"
     inkscape:snap-global="false">
    <inkscape:grid
       originy="-31.136752"
       originx="-58.116878"
       spacingy="1"
       spacingx="1"
       units="mm"
       dotted="true"
       id="grid833"
       type="xygrid" />
  </sodipodi:namedview>
  <metadata
     id="metadata5">
    <rdf:RDF>
      <cc:Work
         rdf:about="">
        <dc:format>image/svg+xml</dc:format>
        <dc:type
           rdf:resource="http://purl.org/dc/dcmitype/StillImage" />
        <dc:title />
      </cc:Work>
    </rdf:RDF>
  </metadata>
  <g
     transform="translate(-58.11688,-31.13675)"
     id="layer1"
     inkscape:groupmode="layer"
     inkscape:label="Layer 1">
    <path
       sodipodi:nodetypes="cccccscccccccccc"
       id="path1195"
       d="m 1212.4526,-31.755374 c 0.067,2.564146 -0.1435,2.760915 -0.2023,4.123779 -0.1372,0.581704 -0.3938,0.879732 -0.7087,1.039435 -0.7917,0.125127 -1.0706,0.127184 -2.3859,0.377975 -0.2027,0.09325 -0.087,0.591661 -0.094,0.815011 0.1501,-0.04323 0.1794,-0.315342 0.4255,-0.330674 2.4442,-0.152262 3.4785,1.104326 3.744,2.421355 0.1969,0.346173 0.2831,0.234672 0.48,0.317238 1.3041,-0.118195 0.7216,0.416796 1.2981,0.295541 -0.305,-0.243631 -0.6168,-0.487263 -0.7268,-0.730895 -0.7624,-1.438108 -0.9221,-2.695952 0.685,-3.425409 -0.088,-0.147402 -0.3188,-0.09597 -0.5585,-0.06944 -0.1821,0.09797 -0.3175,0.19839 -0.6226,0.234803 -0.2069,-0.24737 -0.4174,-0.492701 -0.4725,-0.826823 -0.038,-1.281717 0.023,-2.54359 0.094,-3.803385 z"
       style="display:none;opacity:0.294931;fill:#ff0000;fill-opacity:1;stroke:none;stroke-width:0.264583px;stroke-linecap:butt;stroke-linejoin:miter;stroke-opacity:1" />
    <g
       inkscape:export-ydpi="15.115139"
       inkscape:export-xdpi="15.115139"
       id="g1029"
       transform="translate(-224.7658,-143.09434)">
      <rect
         inkscape:export-ydpi="200"
         inkscape:export-xdpi="200"
         y="175.53928"
         x="284.30154"
         height="40.487499"
         width="23.856537"
         id="rect1005"
         style="opacity:1;fill:#f2f0f5;fill-opacity:1;stroke:none;stroke-width:1.865;stroke-linecap:round;stroke-miterlimit:4;stroke-dasharray:none;stroke-opacity:1" />
      <rect
         inkscape:export-ydpi="200"
         inkscape:export-xdpi="200"
         style="opacity:1;fill:#669580;fill-opacity:1;stroke:none;stroke-width:1.865;stroke-linecap:round;stroke-miterlimit:4;stroke-dasharray:none;stroke-opacity:1"
         id="rect1007"
         width="15.571181"
         height="40.487499"
         x="308.08853"
         y="175.53928" />
      <path
         inkscape:export-ydpi="200"
         inkscape:export-xdpi="200"
         sodipodi:nodetypes="ccccc"
         id="path1009"
         d="m 283.81518,175.16359 v 41.04539 h 40.0692 v -41.04539 z"
         style="fill:none;stroke:#7eac8c;stroke-width:1.865;stroke-linecap:butt;stroke-linejoin:miter;stroke-miterlimit:4;stroke-dasharray:none;stroke-opacity:1" />
      <path
         inkscape:export-ydpi="200"
         inkscape:export-xdpi="200"
         id="path1011"
         d="m 296.75088,175.16359 v 41.04539"
         style="fill:none;stroke:#7eac8c;stroke-width:1.865;stroke-linecap:butt;stroke-linejoin:miter;stroke-miterlimit:4;stroke-dasharray:none;stroke-opacity:1" />
      <path
         inkscape:export-ydpi="200"
         inkscape:export-xdpi="200"
         id="path1013"
         d="m 308.10908,175.16359 v 41.04539"
         style="fill:none;stroke:#7eac8c;stroke-width:1.865;stroke-linecap:butt;stroke-linejoin:miter;stroke-miterlimit:4;stroke-dasharray:none;stroke-opacity:1" />
      <path
         inkscape:export-ydpi="200"
         inkscape:export-xdpi="200"
         id="path1015"
         d="m 283.81518,181.2074 h 40.0692"
         style="fill:none;stroke:#7eac8c;stroke-width:1.865;stroke-linecap:butt;stroke-linejoin:miter;stroke-miterlimit:4;stroke-dasharray:none;stroke-opacity:1" />
      <path
         inkscape:export-ydpi="200"
         inkscape:export-xdpi="200"
         style="fill:#7eac8c;fill-opacity:1;stroke:none;stroke-width:0.264583px;stroke-linecap:butt;stroke-linejoin:miter;stroke-opacity:1"
         d="m 284.14118,213.91132 c 5.93,-1.01897 20.0063,-4.36679 21.5932,-5.98711 0.1707,2.8489 -3.2141,5.75673 -5.3667,6.53242 -0.9507,0.94711 -16.3513,2.66748 -16.5184,2.31669 -0.167,-0.35079 0.2919,-2.862 0.2919,-2.862 z"
         id="path1017"
         sodipodi:nodetypes="cccsc" />
      <path
         inkscape:export-ydpi="200"
         inkscape:export-xdpi="200"
         d="m 294.01458,181.42773 c -0.5823,0.0351 -1.1331,0.39473 -1.6102,1.05575 -0.3252,0.45055 -0.5421,0.81473 -0.5421,0.91002 0,0.0278 -0.1061,0.22745 -0.2356,0.4439 -0.3416,0.5704 -0.6399,1.30991 -1.1581,2.87166 -0.1244,0.37483 -0.3086,0.82599 -0.4093,1.00252 -0.2436,0.42636 -0.8967,1.27773 -1.8143,2.36523 -1.3557,1.60674 -1.6645,2.08824 -1.8728,2.92076 -0.115,0.46287 -0.092,1.48365 0.037,1.63969 0.088,0.10575 0.07,0.28479 -0.1147,1.14825 -0.3183,1.48293 -0.041,3.56692 0.7632,5.73091 0.088,0.23853 0.1876,0.48944 0.2186,0.55759 0.032,0.0682 0.1322,0.29113 0.2212,0.49558 0.09,0.20445 0.2554,0.56711 0.3679,0.80563 0.1129,0.23853 0.2397,0.58722 0.2827,0.77464 0.093,0.41018 0.3557,0.98241 0.7374,1.61075 0.2655,0.43206 0.2811,0.49048 0.2651,0.83613 -0.036,0.78199 0.1895,1.60813 0.5897,2.16524 l 0.2206,0.30696 c 0.6425,0.58477 1.033,0.94581 1.3173,1.21284 -0.043,0.4602 -0.055,0.92041 -0.038,1.09554 0.026,0.1403 0.052,0.27949 0.1101,0.39636 -0.014,0.10804 -0.065,0.24245 -0.1736,0.31471 -0.1557,0.0248 -0.2961,0.074 -0.4837,0.14211 -0.101,0.098 -0.1742,0.21756 -0.2362,0.34468 0.072,0.0291 -0.5307,0.23349 -0.6087,0.13591 -0.1431,-0.18024 -1.4581,-0.5284 -1.3741,-0.41238 -0.066,-0.0827 -0.1484,-0.12582 -0.2284,-0.14366 -0.069,-0.0108 -0.118,0.006 -0.169,0.0207 v 5.3e-4 c -0.081,0.0492 -0.1137,0.0976 -0.1457,0.14573 -0.2074,-0.15403 -0.3535,-0.0724 -0.4542,-0.0537 -0.2987,0.19213 -0.4393,0.3809 -0.5576,0.58601 -0.024,0.2863 0.091,0.50781 0.2315,0.74414 -0.036,-0.43993 0.1819,-0.82588 0.5664,-0.91312 -0.122,0.24892 -0.055,0.29905 0.023,0.3762 0.088,0.0879 0.318,-0.0181 0.5173,-0.14934 0.1803,-0.0172 0.2177,0.0938 0.2997,0.16484 0.1076,-0.0392 0.2413,-0.12687 0.3726,-0.0806 0.1245,0.0325 0.2498,0.10001 0.3788,0.28009 0.2226,-0.15441 0.4224,-0.22424 0.5824,-0.14676 0.104,0.41721 -0.3414,0.72778 -0.2605,1.13946 0.095,0.42861 0.081,0.61592 0.3106,1.17668 0.1487,0.24927 0.3673,0.37426 0.5865,0.49712 -0.3852,-0.91952 -0.2645,-0.81724 -0.2645,-0.97255 0.072,-0.0451 0.1123,-0.1218 0.1343,-0.2005 0.1021,-0.38862 0.029,-0.80478 0.1122,-1.08469 0.061,-0.55285 0.3843,-0.66297 0.5524,-0.69556 0.417,-0.16442 0.5209,0.0252 1.001,-0.093 0.1609,0.0704 0.326,0.15246 0.5219,0.31781 0.071,0.0201 0.1369,0.0555 0.2418,-0.0615 0.035,-0.0806 0.011,-0.22941 0.1163,-0.22944 0.094,-0.0294 0.153,0.19104 0.201,0.30644 0.256,0.22046 0.1979,0.36398 0.46,0.72037 0,-0.70993 -0.3094,-1.22537 -0.5091,-1.53944 -0.1247,-0.27311 -0.3172,-0.4369 -0.54,-0.55243 l -0.1173,-0.47956 c 0.3218,0.30104 0.7525,0.69854 1.5736,1.44023 l 2.112,2.97811 c 0.031,0 0.093,0.0994 0.1364,0.22118 0.044,0.12174 0.2012,0.36967 0.3488,0.55087 0.2033,0.24921 0.2781,0.4027 0.309,0.63045 0.046,0.33553 0.2633,0.96925 0.5339,1.55598 0.1535,0.33251 0.1782,0.46318 0.1782,0.92397 0,0.29526 0.046,0.85086 0.1008,1.23455 0.085,0.59514 0.089,0.75518 0.02,1.08934 -0.1277,0.62226 -0.099,0.94734 0.1721,1.99006 0.1868,0.71715 0.3017,1.04016 0.43,1.2082 0.1984,0.26023 0.7875,0.84231 0.9968,0.98495 0.076,0.0522 0.1395,0.14722 0.1395,0.21135 0,0.0641 0.095,0.22145 0.2114,0.34934 0.1906,0.20966 0.3641,0.31849 0.927,0.58136 0.098,0.0458 0.208,0.14876 0.245,0.22841 0.036,0.0797 0.1654,0.19692 0.2858,0.26096 v 0 c 0.2717,0.14364 0.9084,0.16323 1.0934,0.0336 0.069,-0.0486 0.2887,-0.11148 0.4873,-0.13952 0.2926,-0.0413 0.3856,-0.0842 0.4915,-0.22635 0.1139,-0.15749 0.1271,-0.25553 0.1271,-0.96014 0,-0.71708 -0.071,-1.18394 -0.2687,-1.86346 -0.024,-0.082 -0.016,-0.29871 0.017,-0.48214 0.092,-0.5055 -0.1331,-1.81491 -0.5669,-3.30264 -0.06,-0.22592 -0.091,-0.48709 -0.073,-0.77463 0.046,-0.74922 0.022,-1.69615 -0.047,-1.84226 -0.036,-0.0772 -0.1147,-0.27973 -0.1747,-0.4501 -0.1635,-0.46586 -0.6032,-1.32068 -1.0805,-2.10065 l -0.4269,-0.6966 -0.013,-0.52917 c -0.01,-0.29117 0,-0.55999 0.029,-0.59738 0.024,-0.0388 0.1188,-0.0526 0.2222,-0.032 0.2891,0.0578 0.5712,-0.15709 0.709,-0.54002 0.105,-0.28965 0.1129,-0.44845 0.076,-1.66036 -0.076,-2.55922 -0.2239,-4.5122 -0.4041,-5.32887 -0.035,-0.15745 -0.1072,-0.6624 -0.1612,-1.12241 -0.2558,-2.19295 -0.3026,-2.54696 -0.4072,-3.067 -0.062,-0.30668 -0.1579,-0.75263 -0.2139,-0.99115 -0.056,-0.23853 -0.1266,-0.55099 -0.1566,-0.69454 -0.03,-0.14354 -0.1227,-0.5481 -0.2067,-0.89865 -0.083,-0.35055 -0.1977,-0.84618 -0.2538,-1.10174 -0.056,-0.25556 -0.1287,-0.57632 -0.1617,-0.71262 -0.033,-0.1363 -0.084,-0.37324 -0.1137,-0.52658 -0.1851,-0.9635 -0.5026,-2.43907 -0.6465,-3.00499 -0.3976,-1.56397 -0.4835,-1.71851 -1.8526,-3.33674 -0.6242,-0.73783 -0.7504,-0.99528 -0.9746,-1.9911 -0.039,-0.17037 -0.1107,-0.47716 -0.1607,-0.68161 -0.1131,-0.46275 -0.208,-1.36304 -0.169,-1.61075 0.02,-0.12943 0.098,-0.22979 0.2558,-0.33022 0.2387,-0.15174 0.5184,-0.4994 0.724,-0.90072 0.1642,-0.32048 0.362,-0.45159 0.5436,-0.36018 0.075,0.0378 0.2204,0.0766 0.3225,0.0863 0.1446,0.0138 0.1907,0.0514 0.2067,0.1726 0.031,0.23399 0.097,0.26389 0.2403,0.10904 0.1635,-0.17741 0.3276,-0.66218 0.3276,-0.9679 0,-0.19396 -0.057,-0.30029 -0.3255,-0.61237 -0.1991,-0.23131 -0.3948,-0.54834 -0.5033,-0.81752 -0.1084,-0.26753 -0.2525,-0.50236 -0.369,-0.59996 -0.2035,-0.17134 -0.7821,-0.45682 -0.9255,-0.45682 -0.047,0 -0.1058,-0.0201 -0.1308,-0.0444 -0.102,-0.10201 -1.3072,-0.36547 -1.9714,-0.43098 -0.084,-0.008 -0.1685,-0.01 -0.2517,-0.005 z"
         style="opacity:1;fill:#669580;fill-opacity:1;stroke:#f2f0f5;stroke-width:0.132292;stroke-linecap:butt;stroke-linejoin:miter;stroke-miterlimit:4;stroke-dasharray:none;stroke-opacity:1"
         id="path1019" />
    </g>
  </g>
</svg>
